<svg width="153" height="40" viewBox="0 0 153 40" fill="none" xmlns="http://www.w3.org/2000/svg">
<path d="M25.8272 20.5308C25.864 17.6579 27.4009 14.9394 29.8391 13.4346C28.3009 11.2293 25.7247 9.83114 23.0443 9.74695C20.1855 9.4457 17.4141 11.4643 15.9573 11.4643C14.4723 11.4643 12.2293 9.77686 9.814 9.82675C6.66576 9.92885 3.73081 11.7258 2.19913 14.4889C-1.09339 20.2116 1.36253 28.6221 4.51649 33.248C6.09448 35.5131 7.9387 38.0433 10.3518 37.9536C12.7132 37.8553 13.5951 36.4419 16.4455 36.4419C19.2695 36.4419 20.0969 37.9536 22.559 37.8965C25.0929 37.8552 26.6893 35.6213 28.212 33.3347C29.3457 31.7208 30.2182 29.9369 30.797 28.0494C27.8192 26.785 25.8306 23.7766 25.8272 20.5308Z" fill="#090909"/>
<path d="M21.1767 6.70478C22.5582 5.03977 23.2389 2.89969 23.0741 0.739014C20.9633 0.961571 19.0136 1.9743 17.6133 3.57543C16.2441 5.13981 15.5315 7.24223 15.6663 9.32033C17.7778 9.34215 19.8535 8.35687 21.1767 6.70478Z" fill="#090909"/>
<path d="M110.051 17.5639V21.0453H107.877V23.3284H110.051V31.0859C110.051 33.7348 111.245 34.7943 114.248 34.7943C114.775 34.7943 115.278 34.7312 115.718 34.6556V32.3977C115.341 32.4355 115.102 32.4608 114.687 32.4608C113.343 32.4608 112.752 31.8301 112.752 30.3921V23.3284H115.718V21.0453H112.752V17.5639H110.051Z" fill="#090909"/>
<path d="M123.368 34.9835C127.363 34.9835 129.813 32.2968 129.813 27.8441C129.813 23.4167 127.351 20.7173 123.368 20.7173C119.372 20.7173 116.909 23.4167 116.909 27.8441C116.909 32.2968 119.359 34.9835 123.368 34.9835ZM123.368 32.5743C121.018 32.5743 119.699 30.8462 119.699 27.8441C119.699 24.8673 121.018 23.1266 123.368 23.1266C125.705 23.1266 127.037 24.8673 127.037 27.8441C127.037 30.8336 125.705 32.5743 123.368 32.5743Z" fill="#090909"/>
<path d="M131.91 34.7186H134.611V26.608C134.611 24.678 136.056 23.3788 138.104 23.3788C138.582 23.3788 139.386 23.4671 139.612 23.5428V20.8687C139.323 20.793 138.808 20.7552 138.406 20.7552C136.621 20.7552 135.101 21.739 134.712 23.0887H134.511V20.9822H131.91V34.7186Z" fill="#090909"/>
<path d="M146.319 23.0256C148.317 23.0256 149.624 24.4258 149.687 26.5827H142.776C142.927 24.4384 144.322 23.0256 146.319 23.0256ZM149.674 31.0102C149.172 32.0823 148.053 32.6752 146.42 32.6752C144.259 32.6752 142.864 31.1489 142.776 28.7397V28.5883H152.438V27.6423C152.438 23.3284 150.139 20.7173 146.332 20.7173C142.475 20.7173 140.024 23.505 140.024 27.8946C140.024 32.2842 142.424 34.9835 146.345 34.9835C149.473 34.9835 151.659 33.4699 152.275 31.0102H149.674Z" fill="#090909"/>
<path d="M92.3354 29.646C92.5438 33.019 95.3438 35.1762 99.5111 35.1762C103.965 35.1762 106.752 32.9144 106.752 29.3061C106.752 26.469 105.163 24.9002 101.308 23.9981L99.2376 23.4882C96.7893 22.913 95.7996 22.1416 95.7996 20.795C95.7996 19.0954 97.3363 17.9841 99.6413 17.9841C101.829 17.9841 103.34 19.0693 103.613 20.8081H106.452C106.283 17.6311 103.496 15.3955 99.6804 15.3955C95.5782 15.3955 92.8433 17.6311 92.8433 20.9911C92.8433 23.7628 94.3931 25.4101 97.7921 26.2076L100.214 26.7959C102.702 27.3842 103.796 28.2471 103.796 29.6852C103.796 31.3587 102.077 32.5745 99.7325 32.5745C97.2191 32.5745 95.474 31.4371 95.2265 29.646H92.3354Z" fill="#090909"/>
<path d="M64.3515 20.7552C62.4919 20.7552 60.8836 21.6886 60.0543 23.2527H59.8533V20.9822H57.2524V39.2848H59.9538V32.6374H60.1674C60.8836 34.0879 62.4291 34.9457 64.3766 34.9457C67.8319 34.9457 70.0307 32.2085 70.0307 27.8441C70.0307 23.4797 67.8319 20.7552 64.3515 20.7552ZM63.585 32.5112C61.3234 32.5112 59.9035 30.7201 59.9035 27.8567C59.9035 24.9808 61.3234 23.1896 63.5976 23.1896C65.8844 23.1896 67.2539 24.9429 67.2539 27.8441C67.2539 30.7579 65.8844 32.5112 63.585 32.5112Z" fill="#090909"/>
<path d="M79.4834 20.7552C77.6239 20.7552 76.0156 21.6886 75.1863 23.2527H74.9853V20.9822H72.3844V39.2848H75.0858V32.6374H75.2994C76.0156 34.0879 77.561 34.9457 79.5086 34.9457C82.9639 34.9457 85.1627 32.2085 85.1627 27.8441C85.1627 23.4797 82.9639 20.7552 79.4834 20.7552ZM78.717 32.5112C76.4553 32.5112 75.0355 30.7201 75.0355 27.8567C75.0355 24.9808 76.4553 23.1896 78.7296 23.1896C81.0163 23.1896 82.3859 24.9429 82.3859 27.8441C82.3859 30.7579 81.0163 32.5112 78.717 32.5112Z" fill="#090909"/>
<path d="M52.4055 34.7186H55.505L48.72 15.8531H45.5815L38.7965 34.7186H41.7918L43.5239 29.7114H50.6865L52.4055 34.7186ZM47.001 19.2784H47.2224L49.9442 27.2535H44.2662L47.001 19.2784Z" fill="#090909"/>
<path d="M38.7197 2.54635V10.0034H41.4017C43.6152 10.0034 44.8969 8.63396 44.8969 6.25163C44.8969 3.90547 43.6049 2.54635 41.4017 2.54635H38.7197ZM39.8728 3.60057H41.273C42.8121 3.60057 43.7233 4.58245 43.7233 6.26713C43.7233 7.97766 42.8276 8.9492 41.273 8.9492H39.8728V3.60057Z" fill="#090909"/>
<path d="M48.8225 10.1119C50.4595 10.1119 51.4633 9.01121 51.4633 7.18699C51.4633 5.37311 50.4543 4.26721 48.8225 4.26721C47.1856 4.26721 46.1766 5.37311 46.1766 7.18699C46.1766 9.01121 47.1804 10.1119 48.8225 10.1119ZM48.8225 9.1249C47.8599 9.1249 47.3194 8.41692 47.3194 7.18699C47.3194 5.9674 47.8599 5.25426 48.8225 5.25426C49.78 5.25426 50.3256 5.9674 50.3256 7.18699C50.3256 8.41175 49.78 9.1249 48.8225 9.1249Z" fill="#090909"/>
<path d="M60.0115 4.37574H58.9047L57.9061 8.67014H57.8186L56.6655 4.37574H55.6051L54.452 8.67014H54.3696L53.3658 4.37574H52.2437L53.788 10.0034H54.9256L56.0787 5.85888H56.1662L57.3244 10.0034H58.4723L60.0115 4.37574Z" fill="#090909"/>
<path d="M61.286 10.0034H62.3928V6.71156C62.3928 5.83304 62.9127 5.28526 63.7312 5.28526C64.5496 5.28526 64.9409 5.73486 64.9409 6.63921V10.0034H66.0476V6.36015C66.0476 5.02171 65.3578 4.26721 64.1069 4.26721C63.2627 4.26721 62.7068 4.64446 62.434 5.26976H62.3516V4.37574H61.286V10.0034Z" fill="#090909"/>
<path d="M67.7906 10.0034H68.8974V2.17944H67.7906V10.0034Z" fill="#090909"/>
<path d="M73.0598 10.1119C74.6967 10.1119 75.7005 9.01121 75.7005 7.18699C75.7005 5.37311 74.6916 4.26721 73.0598 4.26721C71.4228 4.26721 70.4139 5.37311 70.4139 7.18699C70.4139 9.01121 71.4177 10.1119 73.0598 10.1119ZM73.0598 9.1249C72.0971 9.1249 71.5566 8.41692 71.5566 7.18699C71.5566 5.9674 72.0971 5.25426 73.0598 5.25426C74.0172 5.25426 74.5629 5.9674 74.5629 7.18699C74.5629 8.41175 74.0172 9.1249 73.0598 9.1249Z" fill="#090909"/>
<path d="M78.9981 9.16107C78.3958 9.16107 77.9583 8.86651 77.9583 8.36007C77.9583 7.86397 78.3083 7.60041 79.0805 7.54874L80.4497 7.46088V7.93115C80.4497 8.6288 79.832 9.16107 78.9981 9.16107ZM78.715 10.0964C79.4511 10.0964 80.0637 9.77604 80.3983 9.21275H80.4858V10.0034H81.5513V6.15861C81.5513 4.97003 80.7586 4.26721 79.3533 4.26721C78.0818 4.26721 77.1758 4.88734 77.0626 5.85371H78.1333C78.2568 5.4558 78.6841 5.22842 79.3018 5.22842C80.0585 5.22842 80.4497 5.56432 80.4497 6.15861V6.64438L78.9312 6.73223C77.5979 6.81492 76.8464 7.39887 76.8464 8.41175C76.8464 9.44013 77.634 10.0964 78.715 10.0964Z" fill="#090909"/>
<path d="M85.3071 10.0964C86.0792 10.0964 86.733 9.72953 87.0676 9.11456H87.1551V10.0034H88.2155V2.17944H87.1087V5.26976H87.0264C86.7227 4.64963 86.0741 4.28272 85.3071 4.28272C83.8915 4.28272 82.9803 5.40929 82.9803 7.18699C82.9803 8.96987 83.8812 10.0964 85.3071 10.0964ZM85.6211 5.28009C86.5477 5.28009 87.1293 6.01908 87.1293 7.19216C87.1293 8.37041 86.5528 9.09906 85.6211 9.09906C84.6842 9.09906 84.1231 8.38074 84.1231 7.18699C84.1231 6.00358 84.6893 5.28009 85.6211 5.28009Z" fill="#090909"/>
<path d="M95.3924 10.1119C97.0293 10.1119 98.0331 9.01121 98.0331 7.18699C98.0331 5.37311 97.0242 4.26721 95.3924 4.26721C93.7554 4.26721 92.7465 5.37311 92.7465 7.18699C92.7465 9.01121 93.7503 10.1119 95.3924 10.1119ZM95.3924 9.1249C94.4297 9.1249 93.8892 8.41692 93.8892 7.18699C93.8892 5.9674 94.4297 5.25426 95.3924 5.25426C96.3498 5.25426 96.8955 5.9674 96.8955 7.18699C96.8955 8.41175 96.3498 9.1249 95.3924 9.1249Z" fill="#090909"/>
<path d="M99.4981 10.0034H100.605V6.71156C100.605 5.83304 101.125 5.28526 101.943 5.28526C102.762 5.28526 103.153 5.73486 103.153 6.63921V10.0034H104.26V6.36015C104.26 5.02171 103.57 4.26721 102.319 4.26721C101.475 4.26721 100.919 4.64446 100.646 5.26976H100.564V4.37574H99.4981V10.0034Z" fill="#090909"/>
<path d="M109.357 2.97528V4.40158H108.466V5.33694H109.357V8.51511C109.357 9.60033 109.846 10.0344 111.076 10.0344C111.292 10.0344 111.498 10.0086 111.679 9.97758V9.05255C111.524 9.06806 111.426 9.07839 111.256 9.07839C110.706 9.07839 110.464 8.82 110.464 8.23088V5.33694H111.679V4.40158H110.464V2.97528H109.357Z" fill="#090909"/>
<path d="M113.164 10.0034H114.271V6.71673C114.271 5.86405 114.775 5.29043 115.681 5.29043C116.464 5.29043 116.881 5.74519 116.881 6.64438V10.0034H117.987V6.37049C117.987 5.03204 117.251 4.27238 116.057 4.27238C115.213 4.27238 114.621 4.64963 114.348 5.28009H114.261V2.17944H113.164V10.0034Z" fill="#090909"/>
<path d="M121.98 5.21291C122.798 5.21291 123.334 5.78653 123.36 6.67022H120.528C120.59 5.7917 121.162 5.21291 121.98 5.21291ZM123.354 8.4841C123.149 8.92336 122.69 9.16624 122.021 9.16624C121.136 9.16624 120.564 8.54094 120.528 7.5539V7.49189H124.487V7.10431C124.487 5.33694 123.545 4.26721 121.985 4.26721C120.405 4.26721 119.401 5.40929 119.401 7.20766C119.401 9.00604 120.384 10.1119 121.99 10.1119C123.272 10.1119 124.168 9.49181 124.42 8.4841H123.354Z" fill="#090909"/>
</svg>
