<svg width="149" height="36" viewBox="0 0 149 36" fill="none" xmlns="http://www.w3.org/2000/svg">
<g filter="url(#filter0_ii_13_3)">
<path d="M1.05777 0.718664C0.663552 1.13754 0.430541 1.78762 0.430541 2.62946V32.7071C0.430541 33.5502 0.663552 34.199 1.05777 34.6178L1.15802 34.7158L17.9415 17.8668V17.6683V17.4697L1.15802 0.619385L1.05777 0.718664Z" fill="url(#paint0_linear_13_3)"/>
<path d="M23.5346 23.4843L17.941 17.8662V17.6676V17.4691L23.536 11.8523L23.662 11.9244L30.2905 15.7052C32.1831 16.785 32.1831 18.5516 30.2905 19.6328L23.662 23.4136L23.5346 23.4843Z" fill="url(#paint1_linear_13_3)"/>
<g filter="url(#filter1_i_13_3)">
<path d="M23.6613 23.4131L17.939 17.6685L1.05664 34.618C1.67981 35.2817 2.71074 35.3633 3.87172 34.7024L23.6613 23.4131Z" fill="url(#paint2_linear_13_3)"/>
</g>
<path d="M23.6613 11.924L3.87172 0.636015C2.71074 -0.0263015 1.67981 0.0566584 1.05664 0.720335L17.9403 17.6699L23.6613 11.924Z" fill="url(#paint3_linear_13_3)"/>
</g>
<path d="M74.2757 19.3139C71.2664 19.3139 68.8136 21.6018 68.8136 24.7528C68.8136 27.8846 71.2664 30.1916 74.2757 30.1916C77.2863 30.1916 79.7391 27.8846 79.7391 24.7528C79.7378 21.6018 77.285 19.3139 74.2757 19.3139ZM74.2757 28.0509C72.6265 28.0509 71.205 26.6915 71.205 24.7541C71.205 22.7962 72.6277 21.4573 74.2757 21.4573C75.9249 21.4573 77.3464 22.7962 77.3464 24.7541C77.3464 26.6902 75.9249 28.0509 74.2757 28.0509ZM62.3587 19.3139C59.3493 19.3139 56.8966 21.6018 56.8966 24.7528C56.8966 27.8846 59.3493 30.1916 62.3587 30.1916C65.3693 30.1916 67.822 27.8846 67.822 24.7528C67.822 21.6018 65.3693 19.3139 62.3587 19.3139ZM62.3587 28.0509C60.7094 28.0509 59.2879 26.6915 59.2879 24.7541C59.2879 22.7962 60.7107 21.4573 62.3587 21.4573C64.0079 21.4573 65.4294 22.7962 65.4294 24.7541C65.4307 26.6902 64.0079 28.0509 62.3587 28.0509ZM48.1847 20.9841V23.2911H53.7094C53.5444 24.5891 53.1119 25.5367 52.4517 26.1953C51.6482 26.9984 50.3905 27.8846 48.1847 27.8846C44.7838 27.8846 42.1251 25.1441 42.1251 21.745C42.1251 18.3459 44.7838 15.6053 48.1847 15.6053C50.0194 15.6053 51.359 16.3266 52.3481 17.2538L53.9768 15.6258C52.595 14.3073 50.7615 13.2983 48.1847 13.2983C43.5261 13.2983 39.6096 17.0888 39.6096 21.745C39.6096 26.4012 43.5261 30.1916 48.1847 30.1916C50.6988 30.1916 52.5963 29.3668 54.0792 27.822C55.6043 26.2976 56.079 24.1543 56.079 22.424C56.079 21.8895 56.0381 21.3946 55.9549 20.9828L48.1847 20.9841ZM106.155 22.7757C105.702 21.5608 104.32 19.3139 101.497 19.3139C98.6932 19.3139 96.3633 21.5186 96.3633 24.7528C96.3633 27.8015 98.6727 30.1916 101.764 30.1916C104.258 30.1916 105.701 28.6673 106.3 27.7811L104.444 26.5444C103.826 27.4511 102.981 28.0483 101.764 28.0483C100.548 28.0483 99.6822 27.492 99.1257 26.3999L106.402 23.3921L106.155 22.7757ZM98.7341 24.5891C98.6727 22.4867 100.363 21.4163 101.58 21.4163C102.528 21.4163 103.331 21.8908 103.6 22.5698L98.7341 24.5891ZM92.8191 29.863H95.2092V13.8764H92.8191V29.863ZM88.9014 20.5301H88.8195C88.2834 19.8907 87.2521 19.3139 85.9547 19.3139C83.2333 19.3139 80.7396 21.7041 80.7396 24.7745C80.7396 27.8233 83.2333 30.1929 85.9547 30.1929C87.2534 30.1929 88.2834 29.6162 88.8195 28.9576H88.9014V29.7402C88.9014 31.8209 87.7882 32.9334 85.9957 32.9334C84.532 32.9334 83.6248 31.8835 83.2538 30.9973L81.1721 31.8631C81.7696 33.3043 83.3561 35.0768 85.9957 35.0768C88.799 35.0768 91.1699 33.4284 91.1699 29.4103V19.6452H88.9027L88.9014 20.5301ZM86.1607 28.0509C84.5115 28.0509 83.1309 26.6698 83.1309 24.7745C83.1309 22.8576 84.5115 21.4573 86.1607 21.4573C87.7882 21.4573 89.0664 22.8576 89.0664 24.7745C89.0664 26.6698 87.7882 28.0509 86.1607 28.0509ZM117.356 13.8764H111.635V29.863H114.021V23.8065H117.354C120 23.8065 122.603 21.8921 122.603 18.8421C122.603 15.7921 120.002 13.8764 117.356 13.8764ZM117.417 21.5813H114.021V16.1015H117.417C119.202 16.1015 120.215 17.5786 120.215 18.8421C120.215 20.08 119.202 21.5813 117.417 21.5813ZM132.172 19.2858C130.443 19.2858 128.653 20.0467 127.913 21.7335L130.031 22.6172C130.484 21.7335 131.329 21.4445 132.213 21.4445C133.448 21.4445 134.703 22.1849 134.723 23.5008V23.6658C134.291 23.419 133.364 23.0494 132.233 23.0494C129.949 23.0494 127.623 24.3039 127.623 26.648C127.623 28.7875 129.497 30.1648 131.595 30.1648C133.199 30.1648 134.085 29.4448 134.64 28.6008H134.722V29.8349H137.028V23.7054C137.029 20.869 134.907 19.2858 132.172 19.2858ZM131.883 28.0471C131.102 28.0471 130.011 27.6557 130.011 26.6889C130.011 25.4549 131.37 24.9817 132.543 24.9817C133.591 24.9817 134.086 25.2081 134.723 25.5163C134.538 26.9984 133.262 28.0471 131.883 28.0471ZM145.423 19.6349L142.687 26.5662H142.605L139.764 19.6349H137.193L141.452 29.322L139.024 34.711H141.513L148.078 19.6349H145.423ZM123.921 29.863H126.307V13.8764H123.921V29.863Z" fill="#090909"/>
<path d="M47.8876 4.42051C47.8876 5.47275 47.5706 6.31027 46.9353 6.93559C46.2143 7.67894 45.2735 8.05061 44.1179 8.05061C43.0108 8.05061 42.0687 7.67391 41.2953 6.92052C40.5206 6.16587 40.1333 5.23166 40.1333 4.11664C40.1333 3.00036 40.5206 2.06615 41.2953 1.31275C42.0687 0.558105 43.0108 0.181409 44.1179 0.181409C44.6675 0.181409 45.1929 0.286883 45.6915 0.496578C46.1913 0.707528 46.5914 0.98754 46.8905 1.33787L46.2169 2.00086C45.7094 1.40442 45.0101 1.10683 44.1166 1.10683C43.3087 1.10683 42.6107 1.38558 42.0214 1.9431C41.4321 2.50061 41.1381 3.22512 41.1381 4.11538C41.1381 5.00564 41.4321 5.73016 42.0214 6.28767C42.6107 6.84518 43.3087 7.12394 44.1166 7.12394C44.9731 7.12394 45.6876 6.84393 46.2591 6.28265C46.6298 5.91725 46.8445 5.40871 46.902 4.75702H44.1166V3.8517H47.8327C47.871 4.04883 47.8876 4.23844 47.8876 4.42051Z" fill="#090909"/>
<path d="M53.7809 1.2739H50.2885V3.66216H53.4383V4.56749H50.2885V6.95575H53.7809V7.88243H49.3029V0.348481H53.7809V1.2739Z" fill="#090909"/>
<path d="M57.9366 7.88243H56.951V1.2739H54.8085V0.348481H60.079V1.2739H57.9366V7.88243Z" fill="#090909"/>
<path d="M63.8922 7.88243V0.348481H64.8778V7.88243H63.8922Z" fill="#090909"/>
<path d="M69.2486 7.88243H68.2631V1.2739H66.1206V0.348481H71.3911V1.2739H69.2486V7.88243Z" fill="#090909"/>
<path d="M81.3682 6.90928C80.614 7.67021 79.677 8.05067 78.5559 8.05067C77.4348 8.05067 76.4978 7.67021 75.7448 6.90928C74.9906 6.14835 74.6148 5.21665 74.6148 4.11544C74.6148 3.01423 74.9906 2.08253 75.7448 1.3216C76.4978 0.560675 77.4348 0.178955 78.5559 0.178955C79.6706 0.178955 80.6063 0.56193 81.3631 1.32663C82.1199 2.09132 82.4982 3.02051 82.4982 4.11544C82.4982 5.21665 82.1211 6.14835 81.3682 6.90928ZM76.4722 6.27768C77.0398 6.84273 77.7339 7.124 78.5559 7.124C79.3778 7.124 80.0732 6.84147 80.6395 6.27768C81.2071 5.71264 81.4922 4.99189 81.4922 4.11544C81.4922 3.23899 81.2071 2.51825 80.6395 1.9532C80.0732 1.38815 79.3778 1.10689 78.5559 1.10689C77.7339 1.10689 77.0398 1.38941 76.4722 1.9532C75.9059 2.51825 75.6208 3.23899 75.6208 4.11544C75.6208 4.99189 75.9059 5.71264 76.4722 6.27768Z" fill="#090909"/>
<path d="M83.8814 7.88243V0.348481H85.0805L88.8081 6.20863H88.8503L88.8081 4.75709V0.348481H89.7937V7.88243H88.7646L84.8645 1.73724H84.8223L84.8645 3.18878V7.88243H83.8814Z" fill="#090909"/>
<path d="M47.8876 4.42051C47.8876 5.47275 47.5706 6.31027 46.9353 6.93559C46.2143 7.67894 45.2735 8.05061 44.1179 8.05061C43.0108 8.05061 42.0687 7.67391 41.2953 6.92052C40.5206 6.16587 40.1333 5.23166 40.1333 4.11664C40.1333 3.00036 40.5206 2.06615 41.2953 1.31275C42.0687 0.558105 43.0108 0.181409 44.1179 0.181409C44.6675 0.181409 45.1929 0.286883 45.6915 0.496578C46.1913 0.707528 46.5914 0.98754 46.8905 1.33787L46.2169 2.00086C45.7094 1.40442 45.0101 1.10683 44.1166 1.10683C43.3087 1.10683 42.6107 1.38558 42.0214 1.9431C41.4321 2.50061 41.1381 3.22512 41.1381 4.11538C41.1381 5.00564 41.4321 5.73016 42.0214 6.28767C42.6107 6.84518 43.3087 7.12394 44.1166 7.12394C44.9731 7.12394 45.6876 6.84393 46.2591 6.28265C46.6298 5.91725 46.8445 5.40871 46.902 4.75702H44.1166V3.8517H47.8327C47.871 4.04883 47.8876 4.23844 47.8876 4.42051Z" stroke="white" stroke-width="0.0524781" stroke-miterlimit="10"/>
<path d="M53.7809 1.2739H50.2885V3.66216H53.4383V4.56749H50.2885V6.95575H53.7809V7.88243H49.3029V0.348481H53.7809V1.2739Z" stroke="white" stroke-width="0.0524781" stroke-miterlimit="10"/>
<path d="M57.9366 7.88243H56.951V1.2739H54.8085V0.348481H60.079V1.2739H57.9366V7.88243Z" stroke="white" stroke-width="0.0524781" stroke-miterlimit="10"/>
<path d="M63.8922 7.88243V0.348481H64.8778V7.88243H63.8922Z" stroke="white" stroke-width="0.0524781" stroke-miterlimit="10"/>
<path d="M69.2486 7.88243H68.2631V1.2739H66.1206V0.348481H71.3911V1.2739H69.2486V7.88243Z" stroke="white" stroke-width="0.0524781" stroke-miterlimit="10"/>
<path d="M81.3682 6.90928C80.614 7.67021 79.677 8.05067 78.5559 8.05067C77.4348 8.05067 76.4978 7.67021 75.7448 6.90928C74.9906 6.14835 74.6148 5.21665 74.6148 4.11544C74.6148 3.01423 74.9906 2.08253 75.7448 1.3216C76.4978 0.560675 77.4348 0.178955 78.5559 0.178955C79.6706 0.178955 80.6063 0.56193 81.3631 1.32663C82.1199 2.09132 82.4982 3.02051 82.4982 4.11544C82.4982 5.21665 82.1211 6.14835 81.3682 6.90928ZM76.4722 6.27768C77.0398 6.84273 77.7339 7.124 78.5559 7.124C79.3778 7.124 80.0732 6.84147 80.6395 6.27768C81.2071 5.71264 81.4922 4.99189 81.4922 4.11544C81.4922 3.23899 81.2071 2.51825 80.6395 1.9532C80.0732 1.38815 79.3778 1.10689 78.5559 1.10689C77.7339 1.10689 77.0398 1.38941 76.4722 1.9532C75.9059 2.51825 75.6208 3.23899 75.6208 4.11544C75.6208 4.99189 75.9059 5.71264 76.4722 6.27768Z" stroke="white" stroke-width="0.0524781" stroke-miterlimit="10"/>
<path d="M83.8814 7.88243V0.348481H85.0805L88.8081 6.20863H88.8503L88.8081 4.75709V0.348481H89.7937V7.88243H88.7646L84.8645 1.73724H84.8223L84.8645 3.18878V7.88243H83.8814Z" stroke="white" stroke-width="0.0524781" stroke-miterlimit="10"/>
<defs>
<filter id="filter0_ii_13_3" x="0.430542" y="0.178955" width="31.2794" height="34.98" filterUnits="userSpaceOnUse" color-interpolation-filters="sRGB">
<feFlood flood-opacity="0" result="BackgroundImageFix"/>
<feBlend mode="normal" in="SourceGraphic" in2="BackgroundImageFix" result="shape"/>
<feColorMatrix in="SourceAlpha" type="matrix" values="0 0 0 0 0 0 0 0 0 0 0 0 0 0 0 0 0 0 127 0" result="hardAlpha"/>
<feOffset dy="-0.203999"/>
<feComposite in2="hardAlpha" operator="arithmetic" k2="-1" k3="1"/>
<feColorMatrix type="matrix" values="0 0 0 0 0 0 0 0 0 0 0 0 0 0 0 0 0 0 0.12 0"/>
<feBlend mode="normal" in2="shape" result="effect1_innerShadow_13_3"/>
<feColorMatrix in="SourceAlpha" type="matrix" values="0 0 0 0 0 0 0 0 0 0 0 0 0 0 0 0 0 0 127 0" result="hardAlpha"/>
<feOffset dy="0.203999"/>
<feComposite in2="hardAlpha" operator="arithmetic" k2="-1" k3="1"/>
<feColorMatrix type="matrix" values="0 0 0 0 1 0 0 0 0 1 0 0 0 0 1 0 0 0 0.25 0"/>
<feBlend mode="normal" in2="effect1_innerShadow_13_3" result="effect2_innerShadow_13_3"/>
</filter>
<filter id="filter1_i_13_3" x="1.05664" y="17.6685" width="22.6046" height="17.4905" filterUnits="userSpaceOnUse" color-interpolation-filters="sRGB">
<feFlood flood-opacity="0" result="BackgroundImageFix"/>
<feBlend mode="normal" in="SourceGraphic" in2="BackgroundImageFix" result="shape"/>
<feColorMatrix in="SourceAlpha" type="matrix" values="0 0 0 0 0 0 0 0 0 0 0 0 0 0 0 0 0 0 127 0" result="hardAlpha"/>
<feOffset dy="-0.203999"/>
<feComposite in2="hardAlpha" operator="arithmetic" k2="-1" k3="1"/>
<feColorMatrix type="matrix" values="0 0 0 0 0 0 0 0 0 0 0 0 0 0 0 0 0 0 0.08 0"/>
<feBlend mode="normal" in2="shape" result="effect1_innerShadow_13_3"/>
</filter>
<linearGradient id="paint0_linear_13_3" x1="16.4537" y1="2.31122" x2="-6.3695" y2="25.0457" gradientUnits="userSpaceOnUse">
<stop stop-color="#00A0FF"/>
<stop offset="0.0066" stop-color="#00A1FF"/>
<stop offset="0.2601" stop-color="#00BEFF"/>
<stop offset="0.5122" stop-color="#00D2FF"/>
<stop offset="0.7604" stop-color="#00DFFF"/>
<stop offset="1" stop-color="#00E3FF"/>
</linearGradient>
<linearGradient id="paint1_linear_13_3" x1="32.7541" y1="17.6676" x2="-0.0242479" y2="17.6676" gradientUnits="userSpaceOnUse">
<stop stop-color="#FFE000"/>
<stop offset="0.4087" stop-color="#FFBD00"/>
<stop offset="0.7754" stop-color="#FFA500"/>
<stop offset="1" stop-color="#FF9C00"/>
</linearGradient>
<linearGradient id="paint2_linear_13_3" x1="20.5537" y1="20.7881" x2="-10.3975" y2="51.619" gradientUnits="userSpaceOnUse">
<stop stop-color="#FF3A44"/>
<stop offset="1" stop-color="#C31162"/>
</linearGradient>
<linearGradient id="paint3_linear_13_3" x1="-3.19524" y1="-9.2922" x2="10.6253" y2="4.47461" gradientUnits="userSpaceOnUse">
<stop stop-color="#32A071"/>
<stop offset="0.0685" stop-color="#2DA771"/>
<stop offset="0.4762" stop-color="#15CF74"/>
<stop offset="0.8009" stop-color="#06E775"/>
<stop offset="1" stop-color="#00F076"/>
</linearGradient>
</defs>
</svg>
